STARTFONT 2.1
FONT -Adobe-Utopia-Regular-I-Normal--33-240-100-100-P-179-ISO8859-2
SIZE 24 100 100
FONTBOUNDINGBOX 46 39 -6 -8
STARTPROPERTIES 29
FOUNDRY "Adobe"
FAMILY_NAME "Utopia"
WEIGHT_NAME "Regular"
SLANT "I"
SETWIDTH_NAME "Normal"
ADD_STYLE_NAME ""
PIXEL_SIZE 33
POINT_SIZE 240
RESOLUTION_X 100
RESOLUTION_Y 100
SPACING "P"
AVERAGE_WIDTH 179
CHARSET_REGISTRY "ISO8859"
CHARSET_ENCODING "2"
CAP_HEIGHT 23
X_HEIGHT 16
RELATIVE_SETWIDTH 50
RELATIVE_WEIGHT 50
WEIGHT 130
FACE_NAME "Utopia Italic"
COPYRIGHT "Copyright (c) 1989, 1991 Adobe Systems Incorporated.  All Rights Reserved., Copyright 1996 Cub Soft"
NOTICE "Utopia is a registered trademark of Adobe Systems Incorporated."
DESTINATION 0
FONT_ASCENT 31
FONT_DESCENT 8
DEFAULT_CHAR 32
_ADOBE_PSFONT "Utopia-Italic"
_ADOBE_XFONT "-Adobe-Utopia-Regular-I-Normal--33-240-100-100-P-179-ISO8859-2"
_DEC_DEVICE_FONTNAMES "PS=Utopia-Italic"
ENDPROPERTIES
CHARS 191
STARTCHAR space
ENCODING 32
SWIDTH 225 0
DWIDTH 8 0
BBX 0 0 0 0
BITMAP
ENDCHAR
STARTCHAR exclam
ENCODING 33
SWIDTH 240 0
DWIDTH 8 0
BBX 9 24 2 0
BITMAP
0300
0780
0780
0700
0f00
0f00
0e00
0e00
0e00
0c00
0c00
0c00
1800
1800
1800
1000
1000
0000
0000
0000
7000
f000
f000
6000
ENDCHAR
STARTCHAR quotedbl
ENCODING 34
SWIDTH 402 0
DWIDTH 13 0
BBX 9 9 7 16
BITMAP
6380
6380
e380
e300
c300
c200
c200
8600
8400
ENDCHAR
STARTCHAR numbersign
ENCODING 35
SWIDTH 530 0
DWIDTH 18 0
BBX 18 22 3 0
BITMAP
006180
00c100
00c300
008300
018200
018600
010600
1fffc0
3fff80
060c00
061800
0c1800
7fff00
fffe00
183000
186000
186000
306000
30c000
30c000
608000
618000
ENDCHAR
STARTCHAR dollar
ENCODING 36
SWIDTH 530 0
DWIDTH 18 0
BBX 17 30 3 -4
BITMAP
000800
001000
001000
00f800
032f00
062780
0c2380
0c2300
1c6000
1c4000
0e4000
0f4000
0fc000
03e000
01f000
00fc00
00fc00
019e00
019e00
010e00
410e00
c10c00
e30c00
f21800
7a3000
0fc000
060000
060000
040000
040000
ENDCHAR
STARTCHAR percent
ENCODING 37
SWIDTH 826 0
DWIDTH 28 0
BBX 24 24 4 -1
BITMAP
078006
1ce00c
387ff8
707030
707030
707060
e070c0
e06180
e0e300
60e600
61cc00
739878
1e19ce
003386
006707
00c707
018e07
030e07
060e0e
040e0e
0c061c
180738
3001e0
200000
ENDCHAR
STARTCHAR ampersand
ENCODING 38
SWIDTH 725 0
DWIDTH 24 0
BBX 22 23 3 0
BITMAP
007800
01ce00
038600
030700
070700
070700
070e00
039c00
03b808
03e01c
03c03c
0de038
38e030
70f070
607860
e03cc0
e01d80
e00f00
e00f00
700f80
7c1bc0
3fe0f0
070038
ENDCHAR
STARTCHAR apostrophe
ENCODING 39
SWIDTH 216 0
DWIDTH 7 0
BBX 5 9 5 16
BITMAP
30
78
38
38
30
30
60
40
80
ENDCHAR
STARTCHAR parenleft
ENCODING 40
SWIDTH 350 0
DWIDTH 12 0
BBX 11 27 5 -3
BITMAP
0060
01c0
0300
0600
0c00
1c00
1800
3800
3000
3000
6000
6000
6000
6000
e000
c000
c000
c000
c000
c000
c000
c000
6000
6000
6000
3000
1800
ENDCHAR
STARTCHAR parenright
ENCODING 41
SWIDTH 350 0
DWIDTH 12 0
BBX 11 28 0 -4
BITMAP
0200
0380
0180
00c0
00c0
0060
0060
0060
0060
0060
0060
0060
0060
00e0
00c0
00c0
00c0
01c0
0180
0180
0380
0300
0700
0600
0c00
1800
7000
8000
ENDCHAR
STARTCHAR asterisk
ENCODING 42
SWIDTH 412 0
DWIDTH 14 0
BBX 12 12 5 12
BITMAP
0300
0300
2320
7270
3be0
0700
0f00
75c0
e4e0
4c40
0c00
0c00
ENDCHAR
STARTCHAR plus
ENCODING 43
SWIDTH 570 0
DWIDTH 19 0
BBX 16 17 3 0
BITMAP
0180
0180
0180
0180
0180
0180
0180
0180
ffff
ffff
0180
0180
0180
0180
0180
0180
0180
ENDCHAR
STARTCHAR comma
ENCODING 44
SWIDTH 265 0
DWIDTH 9 0
BBX 5 9 2 -4
BITMAP
30
78
38
38
30
30
60
c0
80
ENDCHAR
STARTCHAR minus
ENCODING 45
SWIDTH 570 0
DWIDTH 19 0
BBX 16 2 3 7
BITMAP
ffff
ffff
ENDCHAR
STARTCHAR period
ENCODING 46
SWIDTH 265 0
DWIDTH 9 0
BBX 4 4 3 0
BITMAP
60
f0
f0
60
ENDCHAR
STARTCHAR slash
ENCODING 47
SWIDTH 270 0
DWIDTH 9 0
BBX 11 24 1 0
BITMAP
0060
00c0
00c0
01c0
0180
0180
0380
0300
0300
0700
0600
0600
0c00
0c00
1c00
1800
1800
3800
3000
3000
7000
6000
6000
c000
ENDCHAR
STARTCHAR zero
ENCODING 48
SWIDTH 530 0
DWIDTH 18 0
BBX 16 23 3 0
BITMAP
00f0
030c
0606
0e06
1c07
3c07
3807
3807
7007
7007
700f
700e
f00e
e00e
e00e
e01c
e01c
e03c
e038
6030
7070
30e0
0f80
ENDCHAR
STARTCHAR one
ENCODING 49
SWIDTH 530 0
DWIDTH 18 0
BBX 12 23 4 0
BITMAP
0070
07f0
01e0
00e0
00e0
00e0
00e0
01c0
01c0
01c0
01c0
0380
0380
0380
0380
0380
0700
0700
0700
0700
0e00
0e00
ffe0
ENDCHAR
STARTCHAR two
ENCODING 50
SWIDTH 530 0
DWIDTH 18 0
BBX 18 23 1 0
BITMAP
007e00
01c300
078180
0701c0
0f01c0
0e01c0
0401c0
0001c0
000380
000780
000f00
001e00
003800
007000
01c000
038000
060000
0c0000
180000
300100
700200
fffe00
fffe00
ENDCHAR
STARTCHAR three
ENCODING 51
SWIDTH 530 0
DWIDTH 18 0
BBX 17 23 2 0
BITMAP
00f800
03c700
070300
070380
060380
040380
000380
000700
000700
001c00
07e000
003800
001c00
000e00
000e00
000e00
000e00
400e00
e00c00
e01c00
703800
387000
0fc000
ENDCHAR
STARTCHAR four
ENCODING 52
SWIDTH 530 0
DWIDTH 18 0
BBX 16 23 2 0
BITMAP
0007
0007
000f
001e
003e
006e
00ce
008e
018c
031c
061c
0c1c
181c
1818
3038
7fff
ffff
0038
0030
0070
0070
0070
07fc
ENDCHAR
STARTCHAR five
ENCODING 53
SWIDTH 530 0
DWIDTH 18 0
BBX 18 23 2 0
BITMAP
03ffc0
03ff80
020000
060000
060000
060000
040000
0c0000
0c0000
0cf000
0bfc00
0c1e00
180e00
000f00
000700
000700
000700
000600
600e00
e00c00
701c00
383000
0fc000
ENDCHAR
STARTCHAR six
ENCODING 54
SWIDTH 530 0
DWIDTH 18 0
BBX 17 23 3 0
BITMAP
00fc00
038f00
070780
0e0380
1c0300
1c0000
380000
380000
700000
70e000
77f800
7c3c00
701c00
f00e00
e00e00
e00e00
e00e00
e00e00
e01c00
601c00
703800
387000
0f8000
ENDCHAR
STARTCHAR seven
ENCODING 55
SWIDTH 530 0
DWIDTH 18 0
BBX 16 23 5 0
BITMAP
7fff
7fff
400e
c00e
001c
0018
0038
0070
00c0
0080
0180
0300
0600
0600
0c00
1c00
3800
3800
3800
7800
7000
7000
7000
ENDCHAR
STARTCHAR eight
ENCODING 56
SWIDTH 530 0
DWIDTH 18 0
BBX 16 23 3 0
BITMAP
01f8
071c
0e06
0e07
1e07
1c07
1c07
1c0e
0c0e
0618
07f0
1c38
381c
701c
700e
e00e
e00e
e00e
e01c
f01c
7038
3870
0fc0
ENDCHAR
STARTCHAR nine
ENCODING 57
SWIDTH 530 0
DWIDTH 18 0
BBX 16 23 3 0
BITMAP
03f0
0e18
1c0e
380e
3006
7007
7007
7007
7007
7807
380f
3c16
1fee
078e
000e
001e
001c
001c
6038
e078
f070
71e0
0f00
ENDCHAR
STARTCHAR colon
ENCODING 58
SWIDTH 265 0
DWIDTH 9 0
BBX 7 17 3 0
BITMAP
0c
1e
1e
1c
00
00
00
00
00
00
00
00
00
70
f0
f0
60
ENDCHAR
STARTCHAR semicolon
ENCODING 59
SWIDTH 265 0
DWIDTH 9 0
BBX 8 21 1 -4
BITMAP
06
0f
0f
0e
00
00
00
00
00
00
00
08
1c
3c
1c
1c
18
10
20
40
80
ENDCHAR
STARTCHAR less
ENCODING 60
SWIDTH 570 0
DWIDTH 19 0
BBX 16 17 3 0
BITMAP
0001
0007
001f
00fc
03e0
0f80
3e00
f000
c000
f000
7c00
0f80
03e0
00f8
001f
0007
0001
ENDCHAR
STARTCHAR equal
ENCODING 61
SWIDTH 570 0
DWIDTH 19 0
BBX 16 9 3 4
BITMAP
ffff
ffff
0000
0000
0000
0000
0000
ffff
ffff
ENDCHAR
STARTCHAR greater
ENCODING 62
SWIDTH 570 0
DWIDTH 19 0
BBX 16 17 3 0
BITMAP
8000
e000
f800
3f00
07c0
01f0
007c
000f
0003
000f
003e
01f0
07c0
1f00
f800
e000
8000
ENDCHAR
STARTCHAR question
ENCODING 63
SWIDTH 425 0
DWIDTH 14 0
BBX 11 24 5 0
BITMAP
1f00
79c0
70c0
e0e0
60e0
01e0
01e0
03c0
0780
0f00
1c00
3800
7000
6000
e000
f000
7e00
3000
0000
0000
7000
f000
f000
6000
ENDCHAR
STARTCHAR at
ENCODING 64
SWIDTH 794 0
DWIDTH 26 0
BBX 24 24 4 0
BITMAP
001f00
00f0e0
038030
070008
0e000c
1c0006
3807c2
3838c2
7070c3
70e1c3
60c183
61c383
e1c382
e38706
e38b04
e39b0c
61e310
70c1e0
700000
380000
1c0000
0e0000
03c1c0
007e00
ENDCHAR
STARTCHAR A
ENCODING 65
SWIDTH 624 0
DWIDTH 21 0
BBX 23 24 -1 0
BITMAP
0001c0
0001c0
0003c0
0003c0
0007c0
0005c0
000de0
0008e0
0018e0
0030e0
0030e0
0060e0
0040e0
00c0e0
00ffe0
018070
010070
030070
060070
060070
0c0070
0c0070
180078
ff03fe
ENDCHAR
STARTCHAR B
ENCODING 66
SWIDTH 632 0
DWIDTH 21 0
BBX 20 24 2 0
BITMAP
0fff80
01c1e0
01c0e0
01c070
038070
038070
038070
038070
0380e0
0701c0
070780
07fc00
070f00
0703c0
0e01c0
0e01e0
0e01e0
0e01e0
0e01e0
1c01c0
1c03c0
1c0780
1c0e00
fff000
ENDCHAR
STARTCHAR C
ENCODING 67
SWIDTH 661 0
DWIDTH 22 0
BBX 21 24 4 0
BITMAP
003fc0
01e078
038038
0f0018
0e0010
1c0010
3c0010
3c0000
780000
780000
700000
f00000
f00000
f00000
f00000
f00000
f00000
700020
700040
3800c0
3800c0
1c0180
070780
00fe00
ENDCHAR
STARTCHAR D
ENCODING 68
SWIDTH 763 0
DWIDTH 25 0
BBX 26 24 1 0
BITMAP
07ffe000
00f07800
00e01e00
00e00700
01e00700
01c00380
01c00380
01c00380
03c003c0
038003c0
038003c0
038003c0
038003c0
07800380
07000780
07000780
07000f00
07000f00
0f001e00
0e001c00
0e007800
0e00f000
1e03c000
fffe0000
ENDCHAR
STARTCHAR E
ENCODING 69
SWIDTH 596 0
DWIDTH 20 0
BBX 22 24 1 0
BITMAP
07fffc
00e01c
00e00c
00e008
00c008
01c008
01c000
01c000
01c040
01c040
0380c0
03ffc0
0381c0
030080
070080
070000
070000
070000
060020
0e0060
0e0040
0e00c0
1e01c0
ffffc0
ENDCHAR
STARTCHAR F
ENCODING 70
SWIDTH 571 0
DWIDTH 19 0
BBX 21 24 2 0
BITMAP
0ffff8
01c038
01c018
01c010
01c010
038010
038000
038000
038000
038080
070080
070180
07ff80
070300
0f0100
0e0100
0e0000
0e0000
0e0000
1c0000
1c0000
1c0000
1c0000
ff8000
ENDCHAR
STARTCHAR G
ENCODING 71
SWIDTH 709 0
DWIDTH 24 0
BBX 22 24 4 0
BITMAP
001fe0
01e07c
038038
070018
0e0018
1c0010
1c0010
380000
380000
780000
700000
700000
700000
f00000
f007fc
f000f0
f000e0
7000e0
7000e0
7801e0
3801c0
1c01c0
0f03c0
01fc00
ENDCHAR
STARTCHAR H
ENCODING 72
SWIDTH 775 0
DWIDTH 26 0
BBX 28 24 2 0
BITMAP
07fc1ff0
01e00780
01e00780
01c00700
01c00700
01c00700
01c00700
03c00f00
03800e00
03800e00
03800e00
03fffe00
07001c00
07001c00
07001c00
07001c00
0f003c00
0e003800
0e003800
0e003800
0e003800
1e007800
1e007800
ff83fe00
ENDCHAR
STARTCHAR I
ENCODING 73
SWIDTH 345 0
DWIDTH 12 0
BBX 14 24 1 0
BITMAP
07fc
01e0
01e0
01c0
01c0
01c0
01c0
03c0
0380
0380
0380
0380
0700
0700
0700
0700
0f00
0e00
0e00
0e00
0e00
1e00
1e00
ff80
ENDCHAR
STARTCHAR J
ENCODING 74
SWIDTH 352 0
DWIDTH 12 0
BBX 17 28 -1 -4
BITMAP
00ff80
003c00
003c00
003800
003800
003800
003800
007000
007000
007000
007000
00f000
00e000
00e000
00e000
00e000
01c000
01c000
01c000
01c000
03c000
038000
038000
078000
070000
0e0000
3c0000
f00000
ENDCHAR
STARTCHAR K
ENCODING 75
SWIDTH 650 0
DWIDTH 22 0
BBX 26 24 1 0
BITMAP
07fc7fc0
01e01e00
01e03800
01c07000
01c0c000
01c18000
01c30000
03860000
038c0000
03b00000
03f00000
03f00000
07f80000
07380000
073c0000
071c0000
0f1e0000
0e0f0000
0e0f0000
0e078000
0e038000
1e03c000
1e01f000
ff807800
ENDCHAR
STARTCHAR L
ENCODING 76
SWIDTH 565 0
DWIDTH 19 0
BBX 19 24 1 0
BITMAP
07fc00
00e000
00e000
01e000
01c000
01c000
01c000
01c000
038000
038000
038000
038000
078000
070000
070000
070000
070000
0f0000
0e0020
0e0040
0e0040
1e00c0
1e03c0
ffff80
ENDCHAR
STARTCHAR M
ENCODING 77
SWIDTH 920 0
DWIDTH 31 0
BBX 34 24 1 0
BITMAP
07f0001fc0
00f0003e00
00f0003c00
00b8007c00
00b800dc00
01b800b800
01b801b800
0138013800
011c033800
031c023800
031c047000
031c0c7000
021c087000
020e187000
060e107000
060e20e000
060e60e000
040e40e000
0c07c0e000
0c0780c000
0c0701c000
0c0701c000
1c0601c000
ff040ff800
ENDCHAR
STARTCHAR N
ENCODING 78
SWIDTH 763 0
DWIDTH 25 0
BBX 29 24 1 0
BITMAP
07e007f8
00f001c0
00f00180
00f80180
00b80180
013c0180
011c0100
011c0300
010e0300
030e0300
030f0200
02070200
02078600
02038600
0603c600
0601c400
0601c400
0401ec00
0c00ec00
0c00f800
0c007800
0c007800
1c003800
ff003800
ENDCHAR
STARTCHAR O
ENCODING 79
SWIDTH 753 0
DWIDTH 25 0
BBX 23 24 4 0
BITMAP
003f00
01e0e0
038070
070038
0e001c
1e001c
3c001c
3c001c
38001e
78001e
78001e
70001e
f0001e
f0003c
f0003c
f00038
f00038
700078
700070
7800e0
3801e0
1c03c0
0e0700
01f800
ENDCHAR
STARTCHAR P
ENCODING 80
SWIDTH 614 0
DWIDTH 20 0
BBX 21 24 2 0
BITMAP
0ffe00
01c1c0
01c0e0
01c070
01c070
038078
038078
038078
038070
038070
0700f0
0700e0
0701c0
070780
0ffc00
0e0000
0e0000
0e0000
0e0000
1c0000
1c0000
1c0000
1c0000
ff8000
ENDCHAR
STARTCHAR Q
ENCODING 81
SWIDTH 753 0
DWIDTH 25 0
BBX 23 31 4 -7
BITMAP
003f00
01e0e0
038070
070038
0e001c
1e001c
3c001c
3c001c
38001e
78001e
78001e
70001e
f0001e
f0003c
f0003c
f00038
f00038
700078
700070
7800e0
3801e0
1c03c0
0e0700
01fc00
007000
007800
003c00
001e00
001f00
0007c0
0001f0
ENDCHAR
STARTCHAR R
ENCODING 82
SWIDTH 640 0
DWIDTH 21 0
BBX 21 24 2 0
BITMAP
0fff80
01e1e0
01c0f0
01c070
01c078
038078
038078
038070
038070
0380e0
0701c0
070600
07ff00
070700
0f0780
0e0380
0e0380
0e0380
0e0380
1c0380
1c0380
1c0380
1c01c0
ff80f0
ENDCHAR
STARTCHAR S
ENCODING 83
SWIDTH 533 0
DWIDTH 18 0
BBX 17 24 2 0
BITMAP
007e00
018380
030180
070180
0e0180
0e0100
0e0000
0f0000
0f8000
07c000
03f000
01f800
007c00
003e00
001e00
000f00
400700
400700
400700
600600
e00e00
f00c00
7c3800
07c000
ENDCHAR
STARTCHAR T
ENCODING 84
SWIDTH 606 0
DWIDTH 20 0
BBX 20 24 5 0
BITMAP
7ffff0
707070
607030
40f020
c0e020
80e020
00e000
01e000
01c000
01c000
01c000
01c000
03c000
038000
038000
038000
038000
078000
070000
070000
070000
0f0000
0f0000
7fe000
ENDCHAR
STARTCHAR U
ENCODING 85
SWIDTH 794 0
DWIDTH 26 0
BBX 25 24 6 0
BITMAP
ff81ff80
1c003c00
1c003800
1c003800
3c003800
38007800
38007000
38007000
38007000
7000f000
7000e000
7000e000
7000e000
7000e000
e001c000
e001c000
e001c000
e0038000
e0038000
e0038000
70070000
700e0000
383c0000
0ff00000
ENDCHAR
STARTCHAR V
ENCODING 86
SWIDTH 637 0
DWIDTH 21 0
BBX 23 24 4 0
BITMAP
ff81fe
3c0038
1c0070
1c0060
1c00e0
1c00c0
1c0180
1c0180
1c0300
1c0300
0e0600
0e0400
0e0c00
0e0800
0e1800
0e1000
0e3000
0e6000
076000
07c000
078000
078000
070000
070000
ENDCHAR
STARTCHAR W
ENCODING 87
SWIDTH 946 0
DWIDTH 32 0
BBX 33 24 4 0
BITMAP
ff80007f80
3c00e00e00
3c00e00c00
1c01e01800
1c01e01800
1c02e03000
1c02e03000
1c04e02000
1c04e06000
1c08e04000
1c08e0c000
1e10e08000
1e10e18000
1e20e18000
1e20e30000
1e40730000
1e40720000
0e80760000
0e80740000
0f007c0000
0f00780000
0e00780000
0e00700000
0c00700000
ENDCHAR
STARTCHAR X
ENCODING 88
SWIDTH 632 0
DWIDTH 21 0
BBX 26 24 0 0
BITMAP
07fc3fc0
01e00f00
00e01c00
00701800
00703000
00786000
0038c000
0038c000
001d8000
001f0000
001e0000
000e0000
001e0000
00170000
00370000
00678000
00c38000
0183c000
0181c000
0301c000
0601e000
0e00e000
1c00f000
ff87fe00
ENDCHAR
STARTCHAR Y
ENCODING 89
SWIDTH 591 0
DWIDTH 20 0
BBX 22 24 4 0
BITMAP
ff03fc
3c0070
1c0060
1c00c0
0e0180
0e0380
0e0300
0e0600
070c00
071800
071800
03b000
03e000
03c000
03c000
038000
038000
038000
038000
070000
070000
070000
070000
7ff000
ENDCHAR
STARTCHAR Z
ENCODING 90
SWIDTH 622 0
DWIDTH 21 0
BBX 24 24 1 0
BITMAP
01ffff
01c01e
03003c
030078
0200f0
0201f0
0001e0
0003c0
000780
000f00
001e00
003c00
007800
007000
00f000
01e000
03c000
078000
0f0008
0f0010
1e0010
3c0030
7800e0
ffffe0
ENDCHAR
STARTCHAR bracketleft
ENCODING 91
SWIDTH 330 0
DWIDTH 11 0
BBX 12 28 3 -4
BITMAP
03f0
0380
0300
0300
0700
0600
0600
0600
0600
0c00
0c00
0c00
0c00
1c00
1800
1800
1800
1800
3000
3000
3000
3000
7000
6000
6000
6000
e000
fc00
ENDCHAR
STARTCHAR backslash
ENCODING 92
SWIDTH 390 0
DWIDTH 13 0
BBX 9 24 4 0
BITMAP
c000
e000
6000
6000
7000
3000
3000
3000
3800
1800
1800
1800
0c00
0c00
0c00
0e00
0600
0600
0600
0700
0300
0300
0380
0180
ENDCHAR
STARTCHAR bracketright
ENCODING 93
SWIDTH 330 0
DWIDTH 11 0
BBX 12 28 0 -4
BITMAP
03f0
0070
0060
0060
0060
00e0
00c0
00c0
00c0
00c0
0180
0180
0180
0180
0380
0300
0300
0300
0300
0600
0600
0600
0600
0e00
0c00
0c00
1c00
fc00
ENDCHAR
STARTCHAR asciicircum
ENCODING 94
SWIDTH 570 0
DWIDTH 19 0
BBX 15 14 4 9
BITMAP
0380
0380
06c0
06c0
0e60
0c60
1c70
1830
1830
3018
3018
701c
600c
e00e
ENDCHAR
STARTCHAR underscore
ENCODING 95
SWIDTH 500 0
DWIDTH 17 0
BBX 17 2 0 -4
BITMAP
ffff80
ffff80
ENDCHAR
STARTCHAR grave
ENCODING 96
SWIDTH 400 0
DWIDTH 13 0
BBX 7 6 6 18
BITMAP
40
e0
70
38
0c
02
ENDCHAR
STARTCHAR a
ENCODING 97
SWIDTH 561 0
DWIDTH 19 0
BBX 18 17 2 0
BITMAP
007dc0
01c380
070380
0e0380
1c0700
1c0700
380700
380f00
700e00
701e00
e01e00
e02e00
e04c40
e09c80
e31d80
7e1f00
300c00
ENDCHAR
STARTCHAR b
ENCODING 98
SWIDTH 559 0
DWIDTH 19 0
BBX 17 25 3 0
BITMAP
038000
1f8000
070000
070000
070000
070000
060000
0e0000
0e0e00
0e3f00
0c4300
1c8380
1d0380
1f0380
1a0380
3c0380
3c0700
380700
380600
380e00
780c00
781c00
783800
5c7000
c7c000
ENDCHAR
STARTCHAR c
ENCODING 99
SWIDTH 441 0
DWIDTH 15 0
BBX 14 17 3 0
BITMAP
00f0
073c
0c1c
181c
3810
3000
7000
6000
6000
e000
e000
e010
e010
e020
70c0
7f80
1c00
ENDCHAR
STARTCHAR d
ENCODING 100
SWIDTH 587 0
DWIDTH 20 0
BBX 18 25 3 0
BITMAP
0000c0
000fc0
0001c0
0001c0
000380
000380
000380
000380
00ff00
038700
060700
0c0f00
1c0e00
380e00
381e00
701e00
701c00
603c00
e05c00
e05c00
e09880
e13900
e33b00
7c3e00
301800
ENDCHAR
STARTCHAR e
ENCODING 101
SWIDTH 453 0
DWIDTH 15 0
BBX 14 17 3 0
BITMAP
00f0
0718
0c1c
181c
381c
3038
7070
61e0
ef00
f800
e000
e010
e010
f020
70c0
7f80
1c00
ENDCHAR
STARTCHAR f
ENCODING 102
SWIDTH 315 0
DWIDTH 11 0
BBX 20 33 -2 -8
BITMAP
0003c0
000ce0
001c70
001820
001800
003800
003800
007000
03ff00
007000
007000
00f000
00e000
00e000
00e000
00e000
00c000
01c000
01c000
01c000
01c000
018000
038000
038000
038000
030000
030000
030000
060000
060000
e60000
e40000
780000
ENDCHAR
STARTCHAR g
ENCODING 103
SWIDTH 499 0
DWIDTH 17 0
BBX 19 25 1 -8
BITMAP
00f0e0
070fc0
0e0600
0e0700
1e0700
1c0700
1c0f00
1c0e00
0c0e00
0e1c00
03f000
0c0000
1c0000
1e0000
0fc000
07f000
1dfc00
701e00
600f00
e00700
e00700
e00600
700e00
3c3c00
0fe000
ENDCHAR
STARTCHAR h
ENCODING 104
SWIDTH 607 0
DWIDTH 20 0
BBX 17 25 3 0
BITMAP
038000
1f8000
078000
070000
070000
070000
070000
0e0000
0e0700
0e1f80
0e6380
0cc380
1c8380
1d0700
1e0700
1a0700
3c0e00
3c0e00
381c00
381c00
781880
703900
703b00
703e00
e01800
ENDCHAR
STARTCHAR i
ENCODING 105
SWIDTH 317 0
DWIDTH 11 0
BBX 8 24 4 0
BITMAP
06
0f
0f
06
00
00
00
0e
fc
1c
1c
1c
38
38
38
30
70
70
70
62
e4
ec
f8
60
ENDCHAR
STARTCHAR j
ENCODING 106
SWIDTH 309 0
DWIDTH 10 0
BBX 14 32 -2 -8
BITMAP
0018
003c
003c
0018
0000
0000
0000
0038
03f0
0070
0070
0070
0070
00e0
00e0
00e0
00e0
00c0
01c0
01c0
01c0
01c0
0380
0380
0380
0380
0300
0700
0700
c600
e600
7800
ENDCHAR
STARTCHAR k
ENCODING 107
SWIDTH 545 0
DWIDTH 18 0
BBX 17 25 3 0
BITMAP
038000
1f8000
070000
070000
070000
070000
0e0000
0e0000
0e0380
0e0f80
0c3f00
1c7000
1cc000
1d8000
1d0000
3f8000
3b8000
3b8000
3bc000
71c000
71c100
70e200
70f600
e07c00
e03800
ENDCHAR
STARTCHAR l
ENCODING 108
SWIDTH 306 0
DWIDTH 10 0
BBX 8 25 4 0
BITMAP
03
3f
07
07
0e
0e
0e
0e
1c
1c
1c
1c
38
38
38
38
30
70
70
70
62
e4
ec
f8
60
ENDCHAR
STARTCHAR m
ENCODING 109
SWIDTH 912 0
DWIDTH 30 0
BBX 27 17 4 0
BITMAP
0e0e0380
7e3f0fc0
1c4731c0
1c8721c0
1d0641c0
1a068180
3e0f8380
3c0f0380
380e0380
380e0700
701c0700
701c0700
701c0620
60380e40
e0380ec0
e0380f80
c0300600
ENDCHAR
STARTCHAR n
ENCODING 110
SWIDTH 618 0
DWIDTH 21 0
BBX 18 17 3 0
BITMAP
070700
7e1f80
0e6380
0e4380
0e8380
1d0300
1e0700
1e0700
1c0700
3c0e00
380e00
380e00
380c40
701c80
701d80
701f00
e00c00
ENDCHAR
STARTCHAR o
ENCODING 111
SWIDTH 537 0
DWIDTH 18 0
BBX 15 17 3 0
BITMAP
01f0
0718
1c0c
1c0e
380e
700e
700e
701e
f01e
e01c
e01c
e03c
e038
e078
7070
38e0
1f00
ENDCHAR
STARTCHAR p
ENCODING 112
SWIDTH 590 0
DWIDTH 20 0
BBX 18 25 3 -8
BITMAP
070700
3f1f80
0e3380
0e41c0
0e81c0
0f81c0
0d01c0
1e01c0
1e0380
1c0380
1c0300
3c0700
380600
380e00
381c00
3c3800
77e000
700000
700000
700000
600000
e00000
e00000
e00000
c00000
ENDCHAR
STARTCHAR q
ENCODING 113
SWIDTH 559 0
DWIDTH 19 0
BBX 17 26 3 -8
BITMAP
000080
00f980
038780
060780
0e0700
1c0700
380f00
380f00
700e00
701e00
601e00
e03e00
e05c00
e0dc00
e19c00
f31c00
7c3800
303800
003800
003800
007000
007000
007000
007000
006000
00c000
ENDCHAR
STARTCHAR r
ENCODING 114
SWIDTH 402 0
DWIDTH 13 0
BBX 13 17 3 0
BITMAP
0e38
7e78
0cf8
0d10
1e00
1e00
1c00
1c00
3800
3800
3800
3000
7000
7000
7000
6000
e000
ENDCHAR
STARTCHAR s
ENCODING 115
SWIDTH 389 0
DWIDTH 13 0
BBX 13 17 2 0
BITMAP
03c0
0c70
0838
1830
1800
1c00
0e00
0f00
0780
03c0
01c0
01e0
60e0
e0e0
f0c0
7180
1e00
ENDCHAR
STARTCHAR t
ENCODING 116
SWIDTH 341 0
DWIDTH 11 0
BBX 11 21 4 0
BITMAP
0200
0600
0e00
0c00
ffe0
1c00
1c00
3800
3800
3800
3800
3000
7000
7000
7000
7100
e200
e200
ec00
f800
6000
ENDCHAR
STARTCHAR u
ENCODING 117
SWIDTH 618 0
DWIDTH 21 0
BBX 17 17 4 0
BITMAP
0c0380
fc0700
1c0700
1c0700
380e00
380e00
380e00
301e00
701c00
703c00
703c00
605c00
e09880
e13900
e33b00
fc3e00
701800
ENDCHAR
STARTCHAR v
ENCODING 118
SWIDTH 510 0
DWIDTH 17 0
BBX 15 17 4 0
BITMAP
3c04
fc0e
380e
380e
380c
380c
300c
7018
7010
7030
7020
e040
e080
e100
e200
fc00
7000
ENDCHAR
STARTCHAR w
ENCODING 119
SWIDTH 785 0
DWIDTH 26 0
BBX 24 17 4 0
BITMAP
1c0706
fc0e06
3c0e07
380e07
380e07
381c06
381c06
701c04
703c0c
703808
705818
e07810
e0b820
e13840
e23880
fc1f00
700e00
ENDCHAR
STARTCHAR x
ENCODING 120
SWIDTH 516 0
DWIDTH 17 0
BBX 18 17 1 0
BITMAP
008180
0783c0
1f8780
01cc00
01d800
01d000
00e000
00e000
00e000
00e000
016000
037000
027080
047100
fc3a00
f83e00
701800
ENDCHAR
STARTCHAR y
ENCODING 121
SWIDTH 468 0
DWIDTH 16 0
BBX 18 25 0 -8
BITMAP
0100c0
0f81c0
1f81c0
038180
038180
038180
038300
038300
038600
038600
018c00
01c800
01d800
01d000
01f000
01e000
01c000
01c000
018000
010000
030000
420000
e40000
fc0000
700000
ENDCHAR
STARTCHAR z
ENCODING 122
SWIDTH 468 0
DWIDTH 16 0
BBX 16 17 1 0
BITMAP
0fff
0ffe
180c
1018
2030
0060
00c0
0180
0300
0600
0e02
1c06
3804
7f0c
7ffc
cff8
c1f0
ENDCHAR
STARTCHAR braceleft
ENCODING 123
SWIDTH 340 0
DWIDTH 11 0
BBX 10 28 5 -4
BITMAP
00c0
0300
0600
0400
0c00
0c00
0c00
0c00
0c00
0c00
0c00
0800
1800
3000
e000
6000
3000
3000
7000
7000
6000
6000
6000
c000
c000
c000
6000
3800
ENDCHAR
STARTCHAR bar
ENCODING 124
SWIDTH 270 0
DWIDTH 9 0
BBX 2 24 6 0
BITMAP
c0
c0
c0
c0
c0
c0
c0
c0
c0
c0
c0
c0
c0
c0
c0
c0
c0
c0
c0
c0
c0
c0
c0
c0
ENDCHAR
STARTCHAR braceright
ENCODING 125
SWIDTH 340 0
DWIDTH 11 0
BBX 10 28 1 -4
BITMAP
0700
0180
00c0
00c0
00c0
0180
0180
0180
0300
0300
0300
0600
0600
0700
03c0
0300
0600
0c00
0c00
0c00
0c00
0c00
0c00
0c00
0800
1800
3000
c000
ENDCHAR
STARTCHAR asciitilde
ENCODING 126
SWIDTH 570 0
DWIDTH 19 0
BBX 14 5 5 6
BITMAP
0808
3f0c
7ff8
c1f0
4000
ENDCHAR
STARTCHAR nobreakspace
ENCODING 160
SWIDTH 225 0
DWIDTH 8 0
BBX 0 0 0 0
BITMAP
ENDCHAR
STARTCHAR Aogonek
ENCODING 161
SWIDTH 624 0
DWIDTH 21 0
BBX 23 31 -1 -7
BITMAP
0001c0
0001c0
0003c0
0003c0
0007c0
0005c0
000de0
0008e0
0018e0
0030e0
0030e0
0060e0
0040e0
00c0e0
00ffe0
018070
010070
030070
060070
060070
0c0070
0c0070
180078
ff03fe
000c00
001000
003000
006000
006000
006200
003c00
ENDCHAR
STARTCHAR breve
ENCODING 162
SWIDTH 400 0
DWIDTH 13 0
BBX 9 5 9 19
BITMAP
8080
8180
c300
7e00
7c00
ENDCHAR
STARTCHAR Lstroke
ENCODING 163
SWIDTH 571 0
DWIDTH 19 0
BBX 19 24 1 0
BITMAP
07fc00
00e000
00e000
01e000
01c000
01c000
01c000
01c400
03cc00
039800
03e000
03c000
038000
0f0000
1f0000
270000
470000
0f0000
0e0020
0e0060
0e0040
0e00c0
1e03c0
ffff80
ENDCHAR
STARTCHAR currency
ENCODING 164
SWIDTH 530 0
DWIDTH 18 0
BBX 16 16 3 4
BITMAP
4002
e3c7
6ff6
3c3c
300c
300c
6006
6006
6006
6006
6006
300c
300c
3c3c
6ff6
e3c7
ENDCHAR
STARTCHAR Lcaron
ENCODING 165
SWIDTH 600 0
DWIDTH 20 0
BBX 20 27 1 0
BITMAP
000060
0000f0
000070
07fc70
00e060
00e060
01e0c0
01c080
01c100
01c000
01c000
038000
038000
038000
038000
078000
070000
070000
070000
070000
0f0000
0e0020
0e0040
0e0040
1e00c0
1e03c0
ffff80
ENDCHAR
STARTCHAR Sacute
ENCODING 166
SWIDTH 533 0
DWIDTH 18 0
BBX 19 31 2 0
BITMAP
000040
0000e0
0001c0
000380
000600
000800
000000
007e00
018380
030180
070180
0e0180
0e0100
0e0000
0f0000
0f8000
07c000
03f000
01f800
007c00
003e00
001e00
000f00
400700
400700
400700
600600
e00e00
f00c00
7c3800
07c000
ENDCHAR
STARTCHAR section
ENCODING 167
SWIDTH 530 0
DWIDTH 18 0
BBX 16 28 3 -4
BITMAP
0078
018e
0107
0302
0300
0f00
1b80
11c0
31e0
20f0
6078
603c
701c
700c
380e
3e06
1f06
0f84
03c4
01cc
00c8
0070
0060
4060
e060
e0c0
70c0
1f00
ENDCHAR
STARTCHAR diaeresis
ENCODING 168
SWIDTH 400 0
DWIDTH 13 0
BBX 11 4 7 19
BITMAP
60c0
f1e0
f1e0
60c0
ENDCHAR
STARTCHAR Scaron
ENCODING 169
SWIDTH 533 0
DWIDTH 18 0
BBX 18 31 2 0
BITMAP
008040
004180
007300
003e00
001c00
000800
000000
007e00
018380
030180
070180
0e0180
0e0100
0e0000
0f0000
0f8000
07c000
03f000
01f800
007c00
003e00
001e00
000f00
400700
400700
400700
600600
e00e00
f00c00
7c3800
07c000
ENDCHAR
STARTCHAR Scedilla
ENCODING 170
SWIDTH 533 0
DWIDTH 18 0
BBX 17 32 2 -8
BITMAP
007e00
018380
030180
070180
0e0180
0e0100
0e0000
0f0000
0f8000
07c000
03f000
01f800
007c00
003e00
001e00
000f00
400700
400700
400700
600600
e00e00
f00c00
7c3800
07c000
006000
004000
00c000
00e000
007000
007000
006000
03c000
ENDCHAR
STARTCHAR Tcaron
ENCODING 171
SWIDTH 606 0
DWIDTH 20 0
BBX 20 31 5 0
BITMAP
010080
008300
00e600
007c00
003800
001000
000000
7ffff0
707070
607030
40f020
c0e020
80e020
00e000
01e000
01c000
01c000
01c000
01c000
03c000
038000
038000
038000
038000
078000
070000
070000
070000
0f0000
0f0000
7fe000
ENDCHAR
STARTCHAR Zacute
ENCODING 172
SWIDTH 622 0
DWIDTH 21 0
BBX 24 31 1 0
BITMAP
000008
00001c
000038
000070
0000c0
000100
000000
01ffff
01c01e
03003c
030078
0200f0
0201f0
0001e0
0003c0
000780
000f00
001e00
003c00
007800
007000
00f000
01e000
03c000
078000
0f0008
0f0010
1e0010
3c0030
7800e0
ffffe0
ENDCHAR
STARTCHAR hyphen
ENCODING 173
SWIDTH 392 0
DWIDTH 13 0
BBX 9 2 4 7
BITMAP
7f80
ff00
ENDCHAR
STARTCHAR Zcaron
ENCODING 174
SWIDTH 622 0
DWIDTH 21 0
BBX 24 31 1 0
BITMAP
001008
000830
000e60
0007c0
000380
000100
000000
01ffff
01c01e
03003c
030078
0200f0
0201f0
0001e0
0003c0
000780
000f00
001e00
003c00
007800
007000
00f000
01e000
03c000
078000
0f0008
0f0010
1e0010
3c0030
7800e0
ffffe0
ENDCHAR
STARTCHAR Zabovedot
ENCODING 175
SWIDTH 622 0
DWIDTH 21 0
BBX 24 29 1 0
BITMAP
000180
0003c0
0003c0
000180
000000
01ffff
01c01e
03003c
030078
0200f0
0201f0
0001e0
0003c0
000780
000f00
001e00
003c00
007800
007000
00f000
01e000
03c000
078000
0f0008
0f0010
1e0010
3c0030
7800e0
ffffe0
ENDCHAR
STARTCHAR degree
ENCODING 176
SWIDTH 400 0
DWIDTH 13 0
BBX 10 10 6 13
BITMAP
1e00
3f00
6180
e1c0
c0c0
c0c0
e1c0
6180
3f00
1e00
ENDCHAR
STARTCHAR aogonek
ENCODING 177
SWIDTH 561 0
DWIDTH 19 0
BBX 18 24 2 -7
BITMAP
007dc0
01c380
070380
0e0380
1c0700
1c0700
380700
380f00
700e00
701e00
e01e00
e02e00
e04c40
e09c80
e31d80
7e1f00
300c00
006000
008000
018000
030000
030000
031000
01e000
ENDCHAR
STARTCHAR ogonek
ENCODING 178
SWIDTH 350 0
DWIDTH 12 0
BBX 6 7 4 -7
BITMAP
18
20
60
c0
c0
c4
78
ENDCHAR
STARTCHAR lstroke
ENCODING 179
SWIDTH 318 0
DWIDTH 11 0
BBX 11 25 3 0
BITMAP
0180
1f80
0380
0380
0700
0700
0700
0700
0e20
0ec0
0f80
0e00
3c00
7c00
9c00
1c00
3800
3800
3800
3800
7100
7200
7600
7c00
3000
ENDCHAR
STARTCHAR acute
ENCODING 180
SWIDTH 400 0
DWIDTH 13 0
BBX 7 6 9 18
BITMAP
04
0e
1c
38
60
80
ENDCHAR
STARTCHAR lcaron
ENCODING 181
SWIDTH 480 0
DWIDTH 16 0
BBX 14 28 4 0
BITMAP
0018
003c
001c
031c
3f18
0718
0730
0e20
0e40
0e00
0e00
1c00
1c00
1c00
1c00
3800
3800
3800
3800
3000
7000
7000
7000
6200
e400
ec00
f800
6000
ENDCHAR
STARTCHAR sacute
ENCODING 182
SWIDTH 389 0
DWIDTH 13 0
BBX 15 24 2 0
BITMAP
0004
000e
001c
0038
0060
0080
0000
03c0
0c70
0838
1830
1800
1c00
0e00
0f00
0780
03c0
01c0
01e0
60e0
e0e0
f0c0
7180
1e00
ENDCHAR
STARTCHAR caron
ENCODING 183
SWIDTH 400 0
DWIDTH 13 0
BBX 10 6 8 18
BITMAP
8040
4180
7300
3e00
1c00
0800
ENDCHAR
STARTCHAR cedilla
ENCODING 184
SWIDTH 400 0
DWIDTH 13 0
BBX 6 8 3 -8
BITMAP
18
10
30
38
1c
1c
18
f0
ENDCHAR
STARTCHAR scaron
ENCODING 185
SWIDTH 389 0
DWIDTH 13 0
BBX 14 24 2 0
BITMAP
0804
0418
0730
03e0
01c0
0080
0000
03c0
0c70
0838
1830
1800
1c00
0e00
0f00
0780
03c0
01c0
01e0
60e0
e0e0
f0c0
7180
1e00
ENDCHAR
STARTCHAR scedilla
ENCODING 186
SWIDTH 389 0
DWIDTH 13 0
BBX 13 25 2 -8
BITMAP
03c0
0c70
0838
1830
1800
1c00
0e00
0f00
0780
03c0
01c0
01e0
60e0
e0e0
f0c0
7180
1e00
0180
0100
0300
0380
01c0
01c0
0180
0f00
ENDCHAR
STARTCHAR tcaron
ENCODING 187
SWIDTH 390 0
DWIDTH 13 0
BBX 13 29 4 0
BITMAP
0030
0078
0038
0038
0030
0030
0060
0040
0280
0600
0e00
0c00
ffe0
1c00
1c00
3800
3800
3800
3800
3000
7000
7000
7000
7100
e200
e200
ec00
f800
6000
ENDCHAR
STARTCHAR zacute
ENCODING 188
SWIDTH 468 0
DWIDTH 16 0
BBX 16 24 1 0
BITMAP
0002
0007
000e
001c
0030
0040
0000
0fff
0ffe
180c
1018
2030
0060
00c0
0180
0300
0600
0e02
1c06
3804
7f0c
7ffc
cff8
c1f0
ENDCHAR
STARTCHAR doubleacute
ENCODING 189
SWIDTH 400 0
DWIDTH 13 0
BBX 9 7 7 18
BITMAP
3100
3380
7300
6700
6600
c400
8400
ENDCHAR
STARTCHAR zcaron
ENCODING 190
SWIDTH 468 0
DWIDTH 16 0
BBX 16 24 1 0
BITMAP
0402
020c
0398
01f0
00e0
0040
0000
0fff
0ffe
180c
1018
2030
0060
00c0
0180
0300
0600
0e02
1c06
3804
7f0c
7ffc
cff8
c1f0
ENDCHAR
STARTCHAR zabovedot
ENCODING 191
SWIDTH 468 0
DWIDTH 16 0
BBX 16 22 1 0
BITMAP
0060
00f0
00f0
0060
0000
0fff
0ffe
180c
1018
2030
0060
00c0
0180
0300
0600
0e02
1c06
3804
7f0c
7ffc
cff8
c1f0
ENDCHAR
STARTCHAR Racute
ENCODING 192
SWIDTH 640 0
DWIDTH 21 0
BBX 21 31 2 0
BITMAP
000040
0000e0
0001c0
000380
000600
000800
000000
0fff80
01e1e0
01c0f0
01c070
01c078
038078
038078
038070
038070
0380e0
0701c0
070600
07ff00
070700
0f0780
0e0380
0e0380
0e0380
0e0380
1c0380
1c0380
1c0380
1c01c0
ff80f0
ENDCHAR
STARTCHAR Aacute
ENCODING 193
SWIDTH 624 0
DWIDTH 21 0
BBX 23 30 -1 0
BITMAP
000008
00003c
00007c
0001e0
000300
000000
000180
0003c0
0003c0
0007c0
0005c0
000dc0
0009c0
0019c0
0011c0
0031e0
0061e0
0060e0
00c0e0
0080e0
01ffe0
0100e0
0300f0
0200f0
0600f0
0c0070
0c0070
180070
380078
fe03fe
ENDCHAR
STARTCHAR Acircumflex
ENCODING 194
SWIDTH 624 0
DWIDTH 21 0
BBX 23 29 -1 0
BITMAP
000080
0001e0
0003f0
000e18
000808
000180
0003c0
0003c0
0007c0
0005c0
000dc0
0009c0
0019c0
0011c0
0031e0
0061e0
0060e0
00c0e0
0080e0
01ffe0
0100e0
0300f0
0200f0
0600f0
0c0070
0c0070
180070
380078
fe03fe
ENDCHAR
STARTCHAR Abreve
ENCODING 195
SWIDTH 624 0
DWIDTH 21 0
BBX 23 30 -1 0
BITMAP
000404
00040c
000618
0003f0
0003e0
000000
0001c0
0001c0
0003c0
0003c0
0007c0
0005c0
000de0
0008e0
0018e0
0030e0
0030e0
0060e0
0040e0
00c0e0
00ffe0
018070
010070
030070
060070
060070
0c0070
0c0070
180078
ff03fe
ENDCHAR
STARTCHAR Adiaeresis
ENCODING 196
SWIDTH 624 0
DWIDTH 21 0
BBX 23 28 -1 0
BITMAP
000c18
001e3c
001e3c
000c18
000180
0003c0
0003c0
0007c0
0005c0
000dc0
0009c0
0019c0
0011c0
0031e0
0020e0
0060e0
00c0e0
00c0e0
01ffe0
0100e0
0300e0
0200f0
060070
0c0070
0c0070
180070
380070
fe03fe
ENDCHAR
STARTCHAR Lacute
ENCODING 197
SWIDTH 565 0
DWIDTH 19 0
BBX 19 31 1 0
BITMAP
000100
000380
000700
000e00
001800
002000
000000
07fc00
00e000
00e000
01e000
01c000
01c000
01c000
01c000
038000
038000
038000
038000
078000
070000
070000
070000
070000
0f0000
0e0020
0e0040
0e0040
1e00c0
1e03c0
ffff80
ENDCHAR
STARTCHAR Cacute
ENCODING 198
SWIDTH 661 0
DWIDTH 22 0
BBX 21 31 4 0
BITMAP
000010
000038
000070
0000e0
000180
000200
000000
003fc0
01e078
038038
0f0018
0e0010
1c0010
3c0010
3c0000
780000
780000
700000
f00000
f00000
f00000
f00000
f00000
f00000
700020
700040
3800c0
3800c0
1c0180
070780
00fe00
ENDCHAR
STARTCHAR Ccedilla
ENCODING 199
SWIDTH 661 0
DWIDTH 22 0
BBX 21 32 4 -8
BITMAP
003fc0
01e078
038038
0f0018
0e0010
1c0010
3c0010
3c0000
780000
780000
700000
f00000
f00000
f00000
f00000
f00000
f00000
700020
700040
7800c0
3800c0
1c0180
0f0780
01fe00
004000
008000
00c000
01e000
006000
007000
006000
03c000
ENDCHAR
STARTCHAR Ccaron
ENCODING 200
SWIDTH 661 0
DWIDTH 22 0
BBX 21 31 4 0
BITMAP
002010
001060
001cc0
000f80
000700
000200
000000
003fc0
01e078
038038
0f0018
0e0010
1c0010
3c0010
3c0000
780000
780000
700000
f00000
f00000
f00000
f00000
f00000
f00000
700020
700040
3800c0
3800c0
1c0180
070780
00fe00
ENDCHAR
STARTCHAR Eacute
ENCODING 201
SWIDTH 596 0
DWIDTH 20 0
BBX 22 30 1 0
BITMAP
000020
0000f0
0001f0
000780
000c00
000000
07fffc
00e01c
00e00c
00e008
00c008
01c008
01c000
01c000
01c040
01c040
0380c0
03ffc0
0381c0
030080
070080
070000
070000
070000
060020
0e0060
0e0040
0e00c0
1e01c0
ffffc0
ENDCHAR
STARTCHAR Eogonek
ENCODING 202
SWIDTH 596 0
DWIDTH 20 0
BBX 22 31 1 -7
BITMAP
07fffc
00e01c
00e00c
00e008
00c008
01c008
01c000
01c000
01c040
01c040
0380c0
03ffc0
0381c0
030080
070080
070000
070000
070000
060020
0e0060
0e0040
0e00c0
1e01c0
ffffc0
001800
002000
006000
00c000
00c000
00c400
007800
ENDCHAR
STARTCHAR Ediaeresis
ENCODING 203
SWIDTH 596 0
DWIDTH 20 0
BBX 22 28 1 0
BITMAP
003060
0078f0
0078f0
003060
07fffc
00e01c
00e00c
00e008
00c008
01c008
01c000
01c000
01c040
01c040
0380c0
03ffc0
0381c0
030080
070080
070000
070000
070000
060020
0e0060
0e0040
0e00c0
1e01c0
ffffc0
ENDCHAR
STARTCHAR Ecaron
ENCODING 204
SWIDTH 596 0
DWIDTH 20 0
BBX 22 31 1 0
BITMAP
002010
001060
001cc0
000f80
000700
000200
000000
07fffc
00e01c
00e00c
00e008
00c008
01c008
01c000
01c000
01c040
01c040
0380c0
03ffc0
0381c0
030080
070080
070000
070000
070000
060020
0e0060
0e0040
0e00c0
1e01c0
ffffc0
ENDCHAR
STARTCHAR Iacute
ENCODING 205
SWIDTH 345 0
DWIDTH 12 0
BBX 15 30 1 0
BITMAP
0004
001e
003e
00f0
0180
0000
07fc
01e0
00e0
01e0
01c0
01c0
01c0
03c0
0380
0380
0380
0380
0780
0700
0700
0700
0700
0f00
0e00
0e00
0e00
1e00
1e00
ff80
ENDCHAR
STARTCHAR Icircumflex
ENCODING 206
SWIDTH 345 0
DWIDTH 12 0
BBX 15 29 1 0
BITMAP
0020
0070
01f8
038c
0602
07fc
01e0
01e0
01c0
01c0
01c0
01c0
03c0
0380
0380
0380
0380
0780
0700
0700
0700
0700
0e00
0e00
0e00
0e00
1e00
1e00
ff80
ENDCHAR
STARTCHAR Dcaron
ENCODING 207
SWIDTH 763 0
DWIDTH 25 0
BBX 26 31 1 0
BITMAP
00201000
00106000
001cc000
000f8000
00070000
00020000
00000000
07ffe000
00f07800
00e01e00
00e00700
01e00700
01c00380
01c00380
01c00380
03c003c0
038003c0
038003c0
038003c0
038003c0
07800380
07000780
07000780
07000f00
07000f00
0f001e00
0e001c00
0e007800
0e00f000
1e03c000
fffe0000
ENDCHAR
STARTCHAR Dstroke
ENCODING 208
SWIDTH 770 0
DWIDTH 26 0
BBX 26 24 1 0
BITMAP
07ffe000
00f07800
00e01e00
00e00f00
01e00700
01c00380
01c00380
01c00380
01c003c0
03c003c0
038003c0
3ffc03c0
038003c0
07800380
07000780
07000700
07000f00
07000f00
0f001e00
0e003c00
0e007800
0e00f000
1e03c000
fffe0000
ENDCHAR
STARTCHAR Nacute
ENCODING 209
SWIDTH 763 0
DWIDTH 25 0
BBX 29 31 1 0
BITMAP
00000200
00000700
00000e00
00001c00
00003000
00004000
00000000
07e007f8
00f001c0
00f00180
00f80180
00b80180
013c0180
011c0100
011c0300
010e0300
030e0300
030f0200
02070200
02078600
02038600
0603c600
0601c400
0601c400
0401ec00
0c00ec00
0c00f800
0c007800
0c007800
1c003800
ff003800
ENDCHAR
STARTCHAR Ncaron
ENCODING 210
SWIDTH 763 0
DWIDTH 25 0
BBX 29 31 1 0
BITMAP
00040200
00020c00
00039800
0001f000
0000e000
00004000
00000000
07e007f8
00f001c0
00f00180
00f80180
00b80180
013c0180
011c0100
011c0300
010e0300
030e0300
030f0200
02070200
02078600
02038600
0603c600
0601c400
0601c400
0401ec00
0c00ec00
0c00f800
0c007800
0c007800
1c003800
ff003800
ENDCHAR
STARTCHAR Oacute
ENCODING 211
SWIDTH 753 0
DWIDTH 25 0
BBX 23 30 4 0
BITMAP
000060
0001e0
0003e0
000700
001800
000000
003f00
01e0e0
038070
070038
0e001c
1e001c
3c001c
3c001c
38001e
78001e
78001e
70001e
f0001e
f0003c
f0003c
f00038
f00038
700078
700070
7800e0
3801e0
1c03c0
0e0700
01f800
ENDCHAR
STARTCHAR Ocircumflex
ENCODING 212
SWIDTH 753 0
DWIDTH 25 0
BBX 23 29 4 0
BITMAP
000200
000700
001f80
0030c0
004020
003f00
01e0e0
038070
070038
0e001c
1e001c
3c001c
3c001c
38001e
78001e
78001e
70001e
f0001e
f0003c
f0003c
f00038
f00038
700078
700070
7800e0
3801e0
1c03c0
0e0700
01f800
ENDCHAR
STARTCHAR Odoubleacute
ENCODING 213
SWIDTH 753 0
DWIDTH 25 0
BBX 23 32 4 0
BITMAP
000620
000670
000e60
000ce0
000cc0
001880
001080
000000
003f00
01e0e0
038070
070038
0e001c
1e001c
3c001c
3c001c
38001e
78001e
78001e
70001e
f0001e
f0003c
f0003c
f00038
f00038
700078
700070
7800e0
3801e0
1c03c0
0e0700
01f800
ENDCHAR
STARTCHAR Odiaeresis
ENCODING 214
SWIDTH 753 0
DWIDTH 25 0
BBX 23 28 4 0
BITMAP
003060
0078f0
0078f0
003060
003f00
01e0e0
038070
070038
0e001c
1c001c
3c001c
3c001c
38001e
78001e
78001e
70001e
f0001e
f0003c
f0003c
f00038
f00038
700078
700070
7000e0
3801e0
1c0380
0e0700
01f800
ENDCHAR
STARTCHAR multiply
ENCODING 215
SWIDTH 570 0
DWIDTH 19 0
BBX 15 15 4 1
BITMAP
4004
e00e
701c
3838
1c70
0ee0
07c0
0380
07c0
0ee0
1c70
3838
701c
e00e
4004
ENDCHAR
STARTCHAR Rcaron
ENCODING 216
SWIDTH 640 0
DWIDTH 21 0
BBX 21 31 2 0
BITMAP
008040
004180
007300
003e00
001c00
000800
000000
0fff80
01e1e0
01c0f0
01c070
01c078
038078
038078
038070
038070
0380e0
0701c0
070600
07ff00
070700
0f0780
0e0380
0e0380
0e0380
0e0380
1c0380
1c0380
1c0380
1c01c0
ff80f0
ENDCHAR
STARTCHAR Uring
ENCODING 217
SWIDTH 794 0
DWIDTH 26 0
BBX 25 32 6 0
BITMAP
000f0000
00188000
0010c000
0030c000
00308000
00118000
000f0000
00000000
ff81ff80
1c003c00
1c003800
1c003800
3c003800
38007800
38007000
38007000
38007000
7000f000
7000e000
7000e000
7000e000
7000e000
e001c000
e001c000
e001c000
e0038000
e0038000
e0038000
70070000
700e0000
383c0000
0ff00000
ENDCHAR
STARTCHAR Uacute
ENCODING 218
SWIDTH 794 0
DWIDTH 26 0
BBX 25 30 6 0
BITMAP
00004000
0001e000
0003e000
000f0000
00180000
00000000
ff81ff80
1c003c00
1c003800
1c003800
3c003800
38007800
38007000
38007000
38007000
7000f000
7000e000
7000e000
7000e000
7000e000
e001c000
e001c000
e001c000
e0038000
e0038000
e0038000
70070000
700e0000
383c0000
0ff00000
ENDCHAR
STARTCHAR Udoubleacute
ENCODING 219
SWIDTH 794 0
DWIDTH 26 0
BBX 25 32 6 0
BITMAP
00062000
00067000
000e6000
000ce000
000cc000
00188000
00108000
00000000
ff81ff80
1c003c00
1c003800
1c003800
3c003800
38007800
38007000
38007000
38007000
7000f000
7000e000
7000e000
7000e000
7000e000
e001c000
e001c000
e001c000
e0038000
e0038000
e0038000
70070000
700e0000
383c0000
0ff00000
ENDCHAR
STARTCHAR Udiaeresis
ENCODING 220
SWIDTH 794 0
DWIDTH 26 0
BBX 24 28 6 0
BITMAP
00c180
01e3c0
01e3c0
00c180
ff81ff
1c0038
1c0038
180078
380070
380070
380070
3800f0
3000e0
7000e0
7000e0
7001e0
7001c0
7001c0
e001c0
e003c0
e00380
e00380
e00380
e00700
600f00
701e00
383c00
0fe000
ENDCHAR
STARTCHAR Yacute
ENCODING 221
SWIDTH 591 0
DWIDTH 20 0
BBX 22 30 4 0
BITMAP
000040
0001e0
0003c0
000f00
001800
000000
ff03fc
3c0070
1c0060
1c00c0
0e0180
0e0380
0e0300
0e0600
070c00
071800
071800
03b000
03e000
03c000
03c000
038000
038000
038000
038000
070000
070000
070000
070000
7ff000
ENDCHAR
STARTCHAR Tcedilla
ENCODING 222
SWIDTH 606 0
DWIDTH 20 0
BBX 20 32 5 -8
BITMAP
7ffff0
707070
607030
40f020
c0e020
80e020
00e000
01e000
01c000
01c000
01c000
01c000
03c000
038000
038000
038000
038000
078000
070000
070000
070000
0f0000
0f0000
7fe000
003000
002000
006000
007000
003800
003800
003000
01e000
ENDCHAR
STARTCHAR ssharp
ENCODING 223
SWIDTH 577 0
DWIDTH 19 0
BBX 25 33 -3 -8
BITMAP
00007c00
00038700
00070380
000e0380
001c0380
001c0380
003c0700
00380600
03f81e00
00787000
0070e000
0071c000
0071c000
00e1e000
00e0e000
00e0f000
00e07800
00e07800
01c03c00
01c01c00
01c00c00
01c00c00
01c60800
03871800
0383e000
03800000
03000000
03000000
03000000
46000000
e6000000
e4000000
78000000
ENDCHAR
STARTCHAR racute
ENCODING 224
SWIDTH 402 0
DWIDTH 13 0
BBX 14 24 3 0
BITMAP
0008
001c
0038
0070
00c0
0100
0000
0e38
7e78
0cf8
0d10
1e00
1e00
1c00
1c00
3800
3800
3800
3000
7000
7000
7000
6000
e000
ENDCHAR
STARTCHAR aacute
ENCODING 225
SWIDTH 561 0
DWIDTH 19 0
BBX 18 25 2 0
BITMAP
000080
0001c0
0003c0
000700
000e00
001800
000000
000000
007dc0
01c380
070380
0e0380
1c0700
1c0700
380700
380f00
700e00
701e00
e01e00
e02e00
e04c40
e09c80
e31d80
7e1f00
300c00
ENDCHAR
STARTCHAR acircumflex
ENCODING 226
SWIDTH 561 0
DWIDTH 19 0
BBX 18 24 2 0
BITMAP
000400
000e00
003f00
007300
00c1c0
008080
000000
007dc0
01c380
070380
0e0380
1c0700
1c0700
380700
380f00
700e00
701e00
e01e00
e02e00
e04c40
e09c80
e31d80
7e1f00
300c00
ENDCHAR
STARTCHAR abreve
ENCODING 227
SWIDTH 561 0
DWIDTH 19 0
BBX 18 23 2 0
BITMAP
008080
008180
00c300
007e00
007c00
000000
007dc0
01c380
070380
0e0380
1c0700
1c0700
380700
380f00
700e00
701e00
e01e00
e02e00
e04c40
e09c80
e31d80
7e1f00
300c00
ENDCHAR
STARTCHAR adiaeresis
ENCODING 228
SWIDTH 561 0
DWIDTH 19 0
BBX 18 23 2 0
BITMAP
00c180
01e3c0
01e3c0
00c180
000000
000000
007dc0
01c380
070380
0e0380
1c0780
1c0700
380700
380f00
700e00
701e00
e01e00
e02e00
e04c40
e09c80
e31d80
7e1f00
300c00
ENDCHAR
STARTCHAR lacute
ENCODING 229
SWIDTH 306 0
DWIDTH 10 0
BBX 12 32 4 0
BITMAP
0020
0070
00e0
01c0
0300
0400
0000
0300
3f00
0700
0700
0e00
0e00
0e00
0e00
1c00
1c00
1c00
1c00
3800
3800
3800
3800
3000
7000
7000
7000
6200
e400
ec00
f800
6000
ENDCHAR
STARTCHAR cacute
ENCODING 230
SWIDTH 441 0
DWIDTH 15 0
BBX 16 24 3 0
BITMAP
0002
0007
000e
001c
0030
0040
0000
00f0
073c
0c1c
181c
3810
3000
7000
6000
6000
e000
e000
e010
e010
e020
70c0
7f80
1c00
ENDCHAR
STARTCHAR ccedilla
ENCODING 231
SWIDTH 441 0
DWIDTH 15 0
BBX 14 25 3 -8
BITMAP
00f0
073c
0c1c
181c
3810
3000
7000
6000
6000
e000
e000
e010
e010
e020
70c0
7f80
1e00
0c00
1800
1800
1e00
0e00
0600
0e00
7800
ENDCHAR
STARTCHAR ccaron
ENCODING 232
SWIDTH 441 0
DWIDTH 15 0
BBX 15 24 3 0
BITMAP
0402
020c
0398
01f0
00e0
0040
0000
00f0
073c
0c1c
181c
3810
3000
7000
6000
6000
e000
e000
e010
e010
e020
70c0
7f80
1c00
ENDCHAR
STARTCHAR eacute
ENCODING 233
SWIDTH 453 0
DWIDTH 15 0
BBX 14 24 3 0
BITMAP
000c
001c
0038
0070
00c0
0100
0000
00f0
0718
0c1c
181c
381c
3038
7070
61e0
ef00
f800
e000
e010
e010
f020
70c0
7f80
1c00
ENDCHAR
STARTCHAR eogonek
ENCODING 234
SWIDTH 453 0
DWIDTH 15 0
BBX 14 24 3 -7
BITMAP
00f0
0718
0c1c
181c
381c
3038
7070
61e0
ef00
f800
e000
e010
e010
f020
70c0
7f80
1c00
0180
0200
0600
0c00
0c00
0c40
0780
ENDCHAR
STARTCHAR ediaeresis
ENCODING 235
SWIDTH 453 0
DWIDTH 15 0
BBX 15 23 3 0
BITMAP
060c
0f1e
0f1e
060c
0000
0000
00f0
0718
0c1c
181c
381c
3038
7070
61e0
ef80
f800
e000
e010
e010
f020
70e0
7f80
1c00
ENDCHAR
STARTCHAR ecaron
ENCODING 236
SWIDTH 453 0
DWIDTH 15 0
BBX 15 24 3 0
BITMAP
0402
020c
0398
01f0
00e0
0040
0000
00f0
0718
0c1c
181c
381c
3038
7070
61e0
ef00
f800
e000
e010
e010
f020
70c0
7f80
1c00
ENDCHAR
STARTCHAR iacute
ENCODING 237
SWIDTH 317 0
DWIDTH 11 0
BBX 10 24 4 0
BITMAP
01c0
03c0
0780
0e00
1800
1000
0000
0e00
fc00
1c00
1c00
1c00
3800
3800
3800
3000
7000
7000
7000
6200
e400
ec00
f800
6000
ENDCHAR
STARTCHAR icircumflex
ENCODING 238
SWIDTH 317 0
DWIDTH 11 0
BBX 10 24 4 0
BITMAP
0600
0f00
1f00
3180
60c0
8040
0000
0e00
fc00
1c00
1c00
1c00
3800
3800
3800
3000
7000
7000
7000
6200
e400
ec00
f800
6000
ENDCHAR
STARTCHAR dcaron
ENCODING 239
SWIDTH 780 0
DWIDTH 26 0
BBX 24 28 3 0
BITMAP
000006
00000f
000007
0000c7
000fc6
0001c6
0001cc
000388
000390
000380
000380
00ff00
038700
060700
0c0f00
1c0e00
380e00
381e00
701e00
701c00
603c00
e05c00
e05c00
e09880
e13900
e33b00
7c3e00
301800
ENDCHAR
STARTCHAR dstroke
ENCODING 240
SWIDTH 690 0
DWIDTH 23 0
BBX 21 25 3 0
BITMAP
0000c0
000fc0
0001c0
0001c0
001ff8
001ff8
000380
000380
00ff00
038700
060700
0c0f00
1c0e00
380e00
381e00
701e00
701c00
603c00
e05c00
e05c00
e09880
e13900
e33b00
7c3e00
301800
ENDCHAR
STARTCHAR nacute
ENCODING 241
SWIDTH 618 0
DWIDTH 21 0
BBX 18 24 3 0
BITMAP
000200
000700
000e00
001c00
003000
004000
000000
070700
7e1f80
0e6380
0e4380
0e8380
1d0300
1e0700
1e0700
1c0700
3c0e00
380e00
380e00
380c40
701c80
701d80
701f00
e00c00
ENDCHAR
STARTCHAR ncaron
ENCODING 242
SWIDTH 618 0
DWIDTH 21 0
BBX 18 24 3 0
BITMAP
040200
020c00
039800
01f000
00e000
004000
000000
070700
7e1f80
0e6380
0e4380
0e8380
1d0300
1e0700
1e0700
1c0700
3c0e00
380e00
380e00
380c40
701c80
701d80
701f00
e00c00
ENDCHAR
STARTCHAR oacute
ENCODING 243
SWIDTH 537 0
DWIDTH 18 0
BBX 15 24 3 0
BITMAP
000c
001c
0038
0070
00c0
0180
0000
01f0
0718
1c0c
1c0e
380e
700e
700e
701e
f01e
e01c
e01c
e03c
e038
e078
7070
38e0
1f00
ENDCHAR
STARTCHAR ocircumflex
ENCODING 244
SWIDTH 537 0
DWIDTH 18 0
BBX 15 24 3 0
BITMAP
0020
0070
00f8
0198
060c
0404
0000
01f0
0718
1c0c
1c0e
380e
700e
700e
701e
f01e
e01c
e01c
e03c
e038
e078
7070
38e0
1f00
ENDCHAR
STARTCHAR odoubleacute
ENCODING 245
SWIDTH 537 0
DWIDTH 18 0
BBX 15 25 3 0
BITMAP
00c4
00ce
01cc
019c
0198
0310
0210
0000
01f0
0718
1c0c
1c0e
380e
700e
700e
701e
f01e
e01c
e01c
e03c
e038
e078
7070
38e0
1f00
ENDCHAR
STARTCHAR odiaeresis
ENCODING 246
SWIDTH 537 0
DWIDTH 18 0
BBX 16 23 3 0
BITMAP
0306
078f
078f
0306
0000
0000
01f0
0718
1c0c
1c0e
380e
700e
700e
701e
f01e
e01c
e01c
e03c
e038
e078
6070
30e0
1f00
ENDCHAR
STARTCHAR division
ENCODING 247
SWIDTH 570 0
DWIDTH 19 0
BBX 16 16 3 1
BITMAP
0180
03c0
03c0
0180
0000
0000
0000
ffff
ffff
0000
0000
0000
0180
03c0
03c0
0180
ENDCHAR
STARTCHAR rcaron
ENCODING 248
SWIDTH 402 0
DWIDTH 13 0
BBX 13 24 3 0
BITMAP
1008
0830
0e60
07c0
0380
0100
0000
0e38
7e78
0cf8
0d10
1e00
1e00
1c00
1c00
3800
3800
3800
3000
7000
7000
7000
6000
e000
ENDCHAR
STARTCHAR uring
ENCODING 249
SWIDTH 618 0
DWIDTH 21 0
BBX 17 25 4 0
BITMAP
01e000
031000
021800
061800
061000
023000
01e000
000000
0c0380
fc0700
1c0700
1c0700
380e00
380e00
380e00
301e00
701c00
703c00
703c00
605c00
e09880
e13900
e33b00
fc3e00
701800
ENDCHAR
STARTCHAR uacute
ENCODING 250
SWIDTH 618 0
DWIDTH 21 0
BBX 17 24 4 0
BITMAP
000600
000e00
001c00
003800
006000
008000
000000
0c0380
fc0700
1c0700
1c0700
380e00
380e00
380e00
301e00
701c00
703c00
703c00
605c00
e09880
e13900
e33b00
fc3e00
701800
ENDCHAR
STARTCHAR udoubleacute
ENCODING 251
SWIDTH 618 0
DWIDTH 21 0
BBX 17 25 4 0
BITMAP
00c400
00ce00
01cc00
019c00
019800
031000
021000
000000
0c0380
fc0700
1c0700
1c0700
380e00
380e00
380e00
301e00
701c00
703c00
703c00
605c00
e09880
e13900
e33b00
fc3e00
701800
ENDCHAR
STARTCHAR udiaeresis
ENCODING 252
SWIDTH 618 0
DWIDTH 21 0
BBX 17 23 4 0
BITMAP
030600
078f00
078f00
030600
000000
000000
0c0380
fc0700
1c0700
1c0700
380f00
380e00
380e00
301e00
701c00
703c00
703c00
605c00
e09880
e13900
e33b00
fc3e00
701800
ENDCHAR
STARTCHAR yacute
ENCODING 253
SWIDTH 468 0
DWIDTH 16 0
BBX 18 32 0 -8
BITMAP
000180
000380
000700
000e00
001800
002000
000000
0100c0
0f81c0
1f81c0
038180
038180
038180
038300
038300
038600
038600
018c00
01c800
01d800
01d000
01f000
01e000
01c000
01c000
018000
010000
030000
420000
e40000
fc0000
700000
ENDCHAR
STARTCHAR tcedilla
ENCODING 254
SWIDTH 341 0
DWIDTH 11 0
BBX 11 29 4 -8
BITMAP
0200
0600
0e00
0c00
ffe0
1c00
1c00
3800
3800
3800
3800
3000
7000
7000
7000
7100
e200
e200
ec00
f800
6000
0300
0200
0600
0700
0380
0380
0300
1e00
ENDCHAR
STARTCHAR abovedot
ENCODING 255
SWIDTH 402 0
DWIDTH 13 0
BBX 4 4 9 19
BITMAP
60
f0
f0
60
ENDCHAR
ENDFONT
